<?xml version="1.0" encoding="iso-8859-1"?>
<!-- Generator: Adobe Illustrator 16.0.0, SVG Export Plug-In . SVG Version: 6.00 Build 0)  -->
<!DOCTYPE svg PUBLIC "-//W3C//DTD SVG 1.1//EN" "http://www.w3.org/Graphics/SVG/1.1/DTD/svg11.dtd">
<svg version="1.1" id="Layer_1" xmlns="http://www.w3.org/2000/svg" xmlns:xlink="http://www.w3.org/1999/xlink" x="0px" y="0px"
	 width="86px" height="57.941px" viewBox="0 0 86 57.941" style="enable-background:new 0 0 86 57.941;" xml:space="preserve">
<circle style="fill:none;stroke:#FFFFFF;stroke-width:2;stroke-miterlimit:10;" cx="29.313" cy="29.463" r="26.479"/>
<circle style="fill:none;stroke:#FFFFFF;stroke-width:2;stroke-miterlimit:10;" cx="56.506" cy="29.463" r="26.48"/>
<path style="fill:#FF0055;" d="M42.771,26.04c0,0,1.413-2.067,3.558-2.176c2.688-0.139,4.507,1.777,4.644,3.942
	c0.133,2.134-1.936,4.278-3.229,5.512c-2.775,2.648-4.009,3.444-4.947,4.321c-0.94-0.874-2.177-1.659-4.965-4.296
	c-1.3-1.227-3.377-3.363-3.252-5.501c0.126-2.164,1.935-4.083,4.624-3.961C41.351,23.979,42.771,26.04,42.771,26.04z"/>
<linearGradient id="SVGID_1_" gradientUnits="userSpaceOnUse" x1="34.5742" y1="30.7483" x2="50.9785" y2="30.7483">
	<stop  offset="0" style="stop-color:#FF001D"/>
	<stop  offset="1" style="stop-color:#FF0055"/>
</linearGradient>
<path style="fill:url(#SVGID_1_);" d="M42.771,26.04c0,0,1.412-2.067,3.559-2.175c2.689-0.139,4.507,1.777,4.643,3.942
	c0.133,2.133-1.936,4.278-3.229,5.512c-2.775,2.648-4.01,3.443-4.947,4.32c-0.94-0.873-2.177-1.659-4.965-4.297
	c-1.3-1.227-3.377-3.363-3.252-5.501c0.126-2.164,1.935-4.083,4.624-3.961C41.351,23.98,42.771,26.04,42.771,26.04z"/>
</svg>
