<?xml version="1.0" encoding="utf-8"?>
<!-- Generator: Adobe Illustrator 16.0.0, SVG Export Plug-In . SVG Version: 6.00 Build 0)  -->
<!DOCTYPE svg PUBLIC "-//W3C//DTD SVG 1.1//EN" "http://www.w3.org/Graphics/SVG/1.1/DTD/svg11.dtd">
<svg version="1.1" id="Layer_1" xmlns="http://www.w3.org/2000/svg" xmlns:xlink="http://www.w3.org/1999/xlink" x="0px" y="0px"
	 width="86px" height="57.941px" viewBox="0 0 86 57.941" enable-background="new 0 0 86 57.941" xml:space="preserve">
<circle fill="none" stroke="#FFFFFF" stroke-width="2" stroke-miterlimit="10" cx="29.313" cy="29.463" r="26.479"/>
<circle fill="none" stroke="#FFFFFF" stroke-width="2" stroke-miterlimit="10" cx="56.506" cy="29.463" r="26.48"/>
<path fill="#FF0055" d="M42.771,26.04c0,0,1.413-2.066,3.558-2.176c2.688-0.139,4.507,1.777,4.644,3.942
	c0.133,2.134-1.936,4.277-3.229,5.512c-2.775,2.647-4.01,3.444-4.947,4.321c-0.94-0.874-2.177-1.659-4.965-4.296
	c-1.3-1.228-3.377-3.363-3.252-5.502c0.126-2.163,1.935-4.083,4.624-3.961C41.351,23.979,42.771,26.04,42.771,26.04z"/>
<linearGradient id="SVGID_1_" gradientUnits="userSpaceOnUse" x1="-544.4351" y1="230.5925" x2="-528.0313" y2="230.5925" gradientTransform="matrix(1 0 0 -1 579.0098 261.3413)">
	<stop  offset="0" style="stop-color:#FF001D"/>
	<stop  offset="1" style="stop-color:#FF0055"/>
</linearGradient>
<path fill="url(#SVGID_1_)" d="M42.771,26.04c0,0,1.413-2.066,3.559-2.175c2.689-0.139,4.507,1.777,4.643,3.942
	c0.133,2.133-1.936,4.277-3.229,5.512c-2.775,2.647-4.01,3.443-4.947,4.32c-0.94-0.873-2.177-1.659-4.965-4.298
	c-1.3-1.227-3.377-3.362-3.252-5.501c0.126-2.163,1.935-4.083,4.624-3.961C41.351,23.98,42.771,26.04,42.771,26.04z"/>
</svg>
